<svg xmlns="http://www.w3.org/2000/svg" width="25.892" height="22.766" viewBox="0 0 25.892 22.766">
  <path id="Path_311" data-name="Path 311" d="M56.472,60.574a6.8,6.8,0,0,1,1.371-1.368,6.3,6.3,0,0,1,7.608.083A6.253,6.253,0,0,1,67.736,62.8a5.824,5.824,0,0,1-.383,3.9,15.381,15.381,0,0,1-2.52,3.776,39.249,39.249,0,0,1-5.428,5.086c-.9.713-1.843,1.378-2.76,2.071a.259.259,0,0,1-.359,0,45.518,45.518,0,0,1-7.526-6.3,17.875,17.875,0,0,1-2.906-3.967,6.913,6.913,0,0,1-.638-4.909,5.8,5.8,0,0,1,1.155-2.43,5.252,5.252,0,0,1,2.083-1.522,7.37,7.37,0,0,1,3.734-.485,5.848,5.848,0,0,1,3.046,1.3,14.231,14.231,0,0,1,1.028,1.007C56.331,60.4,56.391,60.478,56.472,60.574Z" transform="translate(-43.521 -56.466)" fill="none" stroke="#db5342" stroke-miterlimit="10" stroke-width="3"/>
</svg>
