<svg xmlns="http://www.w3.org/2000/svg" xmlns:xlink="http://www.w3.org/1999/xlink" width="183.784" height="42.222" viewBox="0 0 183.784 42.222">
  <defs>
    <clipPath id="clip-path">
      <rect id="Rectangle_5" data-name="Rectangle 5" width="183.784" height="42.222" fill="none"/>
    </clipPath>
  </defs>
  <g id="Group_18" data-name="Group 18" transform="translate(-31.253 -408.954)">
    <g id="Group_17" data-name="Group 17" transform="translate(31.253 408.954)" clip-path="url(#clip-path)">
      <path id="Path_319" data-name="Path 319" d="M31.312,449.475l-.059-39.465a1.011,1.011,0,0,1,.322-.734,1.079,1.079,0,0,1,.793-.322h1.465l23.4,22.518h.059V410.655a1.1,1.1,0,0,1,1.115-1.113H65.44a1.033,1.033,0,0,1,.793.352,1.115,1.115,0,0,1,.322.761v39.467a1.014,1.014,0,0,1-.322.732,1.078,1.078,0,0,1-.793.322H64.5a1.03,1.03,0,0,1-.763-.293L40.576,427.6h-.058v21.872A1.1,1.1,0,0,1,39.4,450.59H32.426a1.215,1.215,0,0,1-1.113-1.115" transform="translate(-31.253 -408.954)" fill="#db5342"/>
      <path id="Path_320" data-name="Path 320" d="M81.452,449.245V417.931H73.067a1.1,1.1,0,0,1-1.113-1.113v-6.393a1.1,1.1,0,0,1,1.113-1.113H99.1a1.1,1.1,0,0,1,1.115,1.113v6.393a1.1,1.1,0,0,1-1.115,1.113H90.718v31.314A1.215,1.215,0,0,1,89.6,450.36H82.567a1.218,1.218,0,0,1-1.115-1.115" transform="translate(-5.016 -408.724)" fill="#db5342"/>
      <path id="Path_321" data-name="Path 321" d="M92.7,449.245v-38.82a1.1,1.1,0,0,1,1.113-1.113H118.1a1.1,1.1,0,0,1,1.113,1.113v6.393a1.1,1.1,0,0,1-1.113,1.113H101.853V425.2h13.369a1.1,1.1,0,0,1,1.115,1.113v6.391a1.1,1.1,0,0,1-1.115,1.115H101.853v7.916H118.1a1.1,1.1,0,0,1,1.113,1.115v6.391a1.1,1.1,0,0,1-1.113,1.115H93.818a1.1,1.1,0,0,1-1.113-1.115" transform="translate(8.361 -408.724)" fill="#db5342"/>
      <path id="Path_322" data-name="Path 322" d="M122.747,441.679h5.631a10.8,10.8,0,0,0,8.179-3.429,12.582,12.582,0,0,0,0-16.889,10.8,10.8,0,0,0-8.179-3.431h-5.631Zm-9.148,7.565v-38.82a1.075,1.075,0,0,1,.322-.791,1.009,1.009,0,0,1,.734-.322h14.308a19.868,19.868,0,0,1,14.542,6.011,20.539,20.539,0,0,1-14.542,35.038H114.655a1.009,1.009,0,0,1-.734-.322,1.076,1.076,0,0,1-.322-.793" transform="translate(21.831 -408.724)" fill="#db5342"/>
      <path id="Path_323" data-name="Path 323" d="M58.575,418.375a11.715,11.715,0,0,1,7.181,19.979c-2.3,2.279,2.587,10.763,6.685,6.684a21.143,21.143,0,0,0-13.866-36.069,1.034,1.034,0,0,0-.791.35,1.22,1.22,0,0,0-.322.86v6.937a1.217,1.217,0,0,0,.322.86,1.119,1.119,0,0,0,.791.4" transform="translate(-14.358 -408.945)" fill="#db5342"/>
      <path id="Path_324" data-name="Path 324" d="M58.575,434.871A11.836,11.836,0,0,0,69.216,423.13c0-3.205,9.383-5.863,9.383,0a20.461,20.461,0,0,1-6.158,14.984,20.222,20.222,0,0,1-13.866,6.161,1.034,1.034,0,0,1-.791-.35,1.216,1.216,0,0,1-.322-.859v-6.939a1.22,1.22,0,0,1,.322-.86,1.118,1.118,0,0,1,.791-.4" transform="translate(-14.358 -402.054)" fill="#db5342"/>
      <path id="Path_325" data-name="Path 325" d="M141.739,427.525a5.7,5.7,0,0,1,5.62,5.62,5.635,5.635,0,0,1-5.62,5.5,5.571,5.571,0,0,1-5.5-5.5,5.635,5.635,0,0,1,5.5-5.62" transform="translate(36.425 -396.983)" fill="#2b2d48"/>
    </g>
  </g>
</svg>
