<svg xmlns="http://www.w3.org/2000/svg" width="21.36" height="18.711" viewBox="0 0 21.36 18.711">
  <path id="Path_311" data-name="Path 311" d="M54.706,60.172a5.75,5.75,0,0,1,1.159-1.157,5.331,5.331,0,0,1,6.435.07,5.289,5.289,0,0,1,1.932,2.972,4.925,4.925,0,0,1-.324,3.3,13.009,13.009,0,0,1-2.131,3.194,33.193,33.193,0,0,1-4.591,4.3c-.764.6-1.558,1.166-2.334,1.752a.219.219,0,0,1-.3,0,38.5,38.5,0,0,1-6.365-5.326,15.117,15.117,0,0,1-2.458-3.355,5.846,5.846,0,0,1-.54-4.152,4.9,4.9,0,0,1,.977-2.055,4.442,4.442,0,0,1,1.761-1.287,6.233,6.233,0,0,1,3.158-.41,4.946,4.946,0,0,1,2.576,1.1,12.035,12.035,0,0,1,.869.851C54.587,60.022,54.637,60.09,54.706,60.172Z" transform="translate(-44.022 -56.966)" fill="#db5342" stroke="#db5342" stroke-miterlimit="10" stroke-width="2"/>
</svg>
