<svg xmlns="http://www.w3.org/2000/svg" width="114" height="13" viewBox="0 0 114 13"><g transform="translate(-17 -256)"><g transform="translate(-3 9)"><circle cx="3.5" cy="3.5" r="3.5" transform="translate(23 250)" fill="#5eb2ac"/><g transform="translate(20 247)" fill="none" stroke="#5eb2ac" stroke-width="1"><circle cx="6.5" cy="6.5" r="6.5" stroke="none"/><circle cx="6.5" cy="6.5" r="6" fill="none"/></g><g transform="translate(16)"><circle cx="3.5" cy="3.5" r="3.5" transform="translate(23 250)" fill="#5eb2ac"/><g transform="translate(20 247)" fill="none" stroke="#5eb2ac" stroke-width="1"><circle cx="6.5" cy="6.5" r="6.5" stroke="none"/><circle cx="6.5" cy="6.5" r="6" fill="none"/></g></g><g transform="translate(32)"><circle cx="3.5" cy="3.5" r="3.5" transform="translate(23 250)" fill="#5eb2ac"/><g transform="translate(20 247)" fill="none" stroke="#5eb2ac" stroke-width="1"><circle cx="6.5" cy="6.5" r="6.5" stroke="none"/><circle cx="6.5" cy="6.5" r="6" fill="none"/></g></g><g transform="translate(48)"><circle cx="3.5" cy="3.5" r="3.5" transform="translate(23 250)" fill="#5eb2ac"/><g transform="translate(20 247)" fill="none" stroke="#5eb2ac" stroke-width="1"><circle cx="6.5" cy="6.5" r="6.5" stroke="none"/><circle cx="6.5" cy="6.5" r="6" fill="none"/></g></g><g transform="translate(64)"><circle cx="3.5" cy="3.5" r="3.5" transform="translate(23 250)" fill="#5eb2ac"/><g transform="translate(20 247)" fill="none" stroke="#5eb2ac" stroke-width="1"><circle cx="6.5" cy="6.5" r="6.5" stroke="none"/><circle cx="6.5" cy="6.5" r="6" fill="none"/></g></g></g><text transform="translate(101 266)" fill="rgba(0,0,0,0.5)" font-size="10" font-family="Josefin Sans"><tspan x="0" y="0">5 stars</tspan></text></g></svg>